<?xml version="1.0" encoding="utf-8"?>
<!-- Generator: Adobe Illustrator 27.0.0, SVG Export Plug-In . SVG Version: 6.00 Build 0)  -->
<svg version="1.1" id="Layer_1" xmlns="http://www.w3.org/2000/svg" xmlns:xlink="http://www.w3.org/1999/xlink" x="0px" y="0px"
	 viewBox="0 0 4000 4000" style="enable-background:new 0 0 4000 4000;" xml:space="preserve">
<g>
	<path d="M3071.05,1232.5c9,3.61,30.17,9.68,49.76-2.71c0.46-0.29,0.11-1-0.4-0.82c-7.58,2.67-26.18,7.65-49.09,2.66
		C3070.77,1231.52,3070.52,1232.3,3071.05,1232.5z"/>
	<path d="M3303.27,1288.26c-24.71,1.33-43.83-12.76-51.36-19.35c-0.58-0.51-1.41,0.22-0.99,0.87c16.85,25.86,42.41,22.2,52.52,19.48
		C3304.01,1289.1,3303.87,1288.23,3303.27,1288.26z"/>
	<path d="M3116.47,1157.99c-9.34-7.37-17.94-15.23-17.94-15.23l2.15,7.87c-0.46-1.29-4-7.21-29.92-3.69
		c-28.99,3.93-28.99,3.93-28.99,3.93l21.87,2.7l-4.42,1.47c0,0,16.46-1.72,25.8,4.91c9.34,6.63,22.85,14.74,22.85,14.74
		l-10.07-10.81l26.29,15.71l-12.53-12.52c0,0,9.58,6.14,29.73,10.07C3141.29,1177.16,3125.81,1165.36,3116.47,1157.99z"/>
	<path d="M3325.61,1201.12c-11.52-11.36-25.39-5.56-25.39-5.56l2.15-5.56c0,0-5.08,2.37-15.56,5.68
		c-10.48,3.31-22.91,5.44-22.91,5.44c1.95,6.39,25.39,2.84,25.39,2.84l-11.19,4.73c0,0,7.87,0,23.49-4.02
		c15.62-4.02,24.02,4.73,24.02,4.73l-1.95-4.26l13.48,7.34C3337.14,1212.48,3337.14,1212.48,3325.61,1201.12z"/>
	<path d="M3180.83,1177.18c-2.36,3.92-6.38,9.88-10.94,13.62c-0.75,0.61-0.13,1.8,0.8,1.53c3.93-1.13,9.73-4.49,11.76-14.51
		C3182.64,1176.85,3181.34,1176.33,3180.83,1177.18z"/>
	<path d="M3216.81,1171.38c-0.12-1.04-1.62-1.05-1.75-0.01c-0.94,7.64-1.1,20.32,6.17,28.63c0.63,0.72,1.8,0.08,1.51-0.83
		C3221.15,1194.01,3218.21,1183.46,3216.81,1171.38z"/>
	<path d="M3051.09,1375.37c-14.1,5.76-37.19,20.72-24,54.44c0.63,1.62,3.05,1.13,3.02-0.61c-0.27-12.27,2.42-34.57,22.58-51.18
		C3054.07,1376.88,3052.75,1374.7,3051.09,1375.37z"/>
	<path d="M3279.69,1417.06c0.64,5.44,0.95,16.7-5.83,23.75c-5.99,6.23-8.86,13.7-10.14,18.17c-0.34,1.2,1.13,2.08,2.02,1.21
		c3.03-2.96,8.06-8.21,13.45-15.32c8.01-10.56,11.75-20.17,2.54-28.84C3280.91,1415.25,3279.55,1415.93,3279.69,1417.06z"/>
	<path d="M3225.75,1468.09c-8.6,5.91-30.07,25.04-60.52,20.2c-1.77-0.28-3.56-0.49-5.35-0.63c-22.04-1.67-39.18-14.59-47.67-22.42
		c-0.6-0.55-1.48,0.22-1.02,0.89c2,2.87,4.5,6.49,7.31,10.62c7,10.32,17.88,19.6,28.07,19.1c7.51-0.36,19.29-1.29,24.82-0.74
		c5.53,0.55,23,5.23,32.8-1.35C3216.54,1485.47,3234.6,1462.01,3225.75,1468.09z"/>
	<path d="M3263.66,1434.18c-0.86-6.45-5.29-0.37-16.16-0.55c-10.1-0.17-21.32-11.16-64.08-3.7c-7.02,1.22-14.22,0.89-21.09-0.99
		c-25.29-6.92-42.21-9.52-72.58-9.68c-14.87-0.8-22.72-2.41-26.78-3.72c-2.57-0.83-5.32,0.65-6.07,3.24
		c-0.51,1.77-1.04,3.92-1.42,6.37c-1.11,7,16.95-1.42,28.38,5.65c11.43,7.07,43.31,42.08,83.85,39.5
		c35.38,4.79,51.6-7.56,62.29-16.03c10.69-8.48,18.8-11.64,27.83-11.81S3264.52,1440.63,3263.66,1434.18z M3219.46,1455.57
		c-0.11,0.5-0.38,0.95-0.76,1.3c-3.18,2.93-6.89,4.32-12.55,3.01c-0.66-0.15-1.35-0.02-1.9,0.36c-5.46,3.73-11.14,3.86-15.44,1.75
		c-0.56-0.28-1.21-0.32-1.81-0.13c-10.56,3.3-16.99,2.1-21.87-0.95c-0.65-0.41-1.46-0.51-2.18-0.22
		c-6.15,2.45-18.63-0.67-23.54-5.05c-0.44-0.39-1-0.63-1.6-0.64c-8.81-0.14-11.14-2.31-15.9-7.07c-0.52-0.52-1.25-0.78-1.99-0.71
		c-11.1,1.15-14.86-4.78-17.07-8.54c-0.36-0.62-0.99-1.05-1.7-1.17c-5.13-0.87-8.03-2.83-9.38-4.02c-0.6-0.53-0.89-1.33-0.79-2.13
		l0.8-6.34c0.19-1.46,1.61-2.43,3.04-2.06c2.73,0.7,6.84,1.97,8.97,3.65c0.73,0.58,1.72,0.65,2.57,0.26
		c6.27-2.93,14.11,0.9,18.2,5.65c0.65,0.76,1.69,1.02,2.64,0.72c7.28-2.35,12.15-0.38,15.57,4.3c0.61,0.84,1.69,1.18,2.68,0.88
		c10.03-3.04,17.34-1.09,22.89,3.69c0.68,0.58,1.61,0.76,2.45,0.45c8.59-3.16,15.19-1.88,19.09,0.7c0.91,0.6,2.12,0.54,2.94-0.18
		c2.89-2.56,6.4-2.69,12.73-1.01c0.54,0.14,1.12,0.09,1.62-0.14c6.14-2.83,9.83-3.29,11.93-3.13c1.35,0.11,2.37,1.28,2.26,2.63
		C3221.14,1444.44,3220.56,1450.49,3219.46,1455.57z"/>
	<path d="M3037.04,1218.01c0,0-12.16,3.13-20.82-1.11C3016.21,1216.9,3024.51,1225.93,3037.04,1218.01z"/>
	<path d="M3002.39,1209.39c0,0-15.3-4.29-18.8-9.81C2983.6,1199.58,2984.33,1210.91,3002.39,1209.39z"/>
	<path d="M2982.49,1231.83c0,0,10.69-6.63,21.75-9.21C3004.24,1222.62,2991.15,1220.96,2982.49,1231.83z"/>
	<path d="M3333.01,1302.97c0.06-15.73-15.05-17.69-15.05-17.69C3329.75,1292.89,3333.01,1302.97,3333.01,1302.97z"/>
	<path d="M3298.46,1256.51c0.44-0.12,0.32-0.77-0.13-0.73c-13.99,1.13-27.31-2.23-33.67-4.2c-0.44-0.14-0.68,0.48-0.27,0.69
		C3279.68,1260.1,3292.67,1258.1,3298.46,1256.51z"/>
	<path d="M1796.15,2363.46c12.83,10.42,22.58,17.24,29.26,20.44c5.07,2.94,13.76,4.41,26.05,4.41c21.65,0,46.5-4.54,74.55-13.63
		c24.58-8.28,45.16-17.1,61.73-26.45c28.32,26.45,53.71,39.68,76.16,39.68c21.64,0,40.21-9.75,55.71-29.26
		c-10.42-3.21-20.44-7.35-30.06-12.43c-15.23-8.28-31.8-19.64-49.7-34.07c25.11-25.11,37.68-48.63,37.68-70.54
		c0-23.25-14.17-39.41-42.49-48.5l-0.8,2c-8.29,24.85-20.98,48.1-38.08,69.74l-0.8-0.8c-14.97-20.84-26.72-42.09-35.27-63.73
		c55.85-38.21,86.58-59.45,92.19-63.73c20.57-17.37,37.94-37.01,52.1-58.92c11.76-18.17,17.64-34.47,17.64-48.9
		c0-12.02-6.01-24.31-18.03-36.88c-10.96-11.76-19.24-19.24-24.85-22.45c-4.28-2.67-12.02-4.01-23.25-4.01
		c-9.62,0-22.98,2.01-40.08,6.01c-52.38,13.9-89.52,39.68-111.43,77.36c-12.57,23.52-18.84,49.7-18.84,78.56
		c0,18.71,3.33,38.62,10.02,59.72c-30.73,19.51-55.58,37.81-74.55,54.91c-4.55,4.55-6.95,6.81-7.21,6.81
		c-26.99,27.53-40.48,51.98-40.48,73.35C1773.3,2336.61,1780.92,2350.38,1796.15,2363.46z M2005.78,2031.18
		c22.98-16.3,41.02-24.45,54.11-24.45c5.34,0.8,8.15,3.74,8.42,8.82c0,14.97-10.29,36.21-30.86,63.73
		c-17.37,23.79-46.77,48.77-88.18,74.95c-0.54-8.02-0.8-12.96-0.8-14.83C1948.46,2095.85,1967.56,2059.78,2005.78,2031.18z
		 M1873.91,2270.87c2.4-3.21,9.35-10.28,20.84-21.24c9.62-9.35,15.89-15.09,18.84-17.23c10.95,25.12,24.31,49.7,40.08,73.75
		c-28.33,20.58-62.13,35.27-101.41,44.09c-8.56-1.33-12.82-6.14-12.82-14.43C1839.44,2320.31,1850.92,2298.67,1873.91,2270.87z"/>
	<path d="M2615.52,2085.77c36.57-46.96,54.87-76.21,54.87-87.72c0-2.93-2.94-7.67-8.81-14.23c-11.29-10.61-26.99-15.92-47.08-15.92
		c-33.65,0-70.68,11.97-111.09,35.9c-24.38,14-46.06,31.62-65.03,52.84c-18.07,21.45-27.1,41.55-27.1,60.29
		c0,13.55,4.07,30.26,12.19,50.13c5.19,12.65,13.55,30.48,25.06,53.51c15.13,32.06,22.69,56.34,22.69,72.82
		c0,24.84-20.44,44.26-61.3,58.26c-26.87,7.9-50.24,11.86-70.11,11.86c-10.84,0-19.76-1.58-26.76-4.74
		c-12.87-6.32-19.3-17.16-19.3-32.51c0-16.26,6.1-33.64,18.29-52.16c2.26-3.84,7-9.48,14.23-16.93c-2.93,0-9.03,4.52-18.29,13.55
		c-19.87,21.9-29.81,46.4-29.81,73.5c0,9.48,1.47,18.51,4.41,27.1c5.87,16.26,16.04,28.9,30.48,37.93
		c11.97,8.35,28,12.53,48.1,12.53c20.54,0,43.01-4.06,67.4-12.19c35-12.65,62.88-29.69,83.65-51.14
		c13.77-16.26,20.66-31.61,20.66-46.06v-2.03c0-16.48-7.68-36.8-23.03-60.97l-16.26-24.73c-18.96-27.32-28.45-48.77-28.45-64.35
		c0-19.19,10.5-41.43,31.5-66.72c9.48-11.97,25.96-26.64,49.45-44.03c18.97-13.32,36.24-24.16,51.82-32.51
		c12.65-6.77,22.24-10.16,28.79-10.16c4.06,0,6.1,1.58,6.1,4.74c0,4.29-2.71,10.28-8.13,17.95c-20.32,28-47.41,62.78-81.29,104.32
		c-3.84,4.06-5.76,8.92-5.76,14.56c0,10.16,5.08,20.1,15.24,29.81h0.34l-0.34-0.68c0-5.42,6.88-17.5,20.66-36.24
		C2576.22,2137.48,2590.22,2118.96,2615.52,2085.77z"/>
	<path d="M2867.23,2239.88c10.39-12.42,19.19-26.19,26.42-41.32h-15.92l-3.39,5.08c-11.29,17.16-21.45,29.69-30.48,37.6
		c-6.1,5.2-11.97,8.24-17.61,9.14c12.65-30.7,18.97-57.24,18.97-79.59c0-10.38-1.36-18.97-4.07-25.74
		c-0.68-2.71-3.04-6.21-7.11-10.5c-17.16-15.8-35-23.71-53.51-23.71c-21.91,0-43.69,11.41-65.37,34.21
		c-14.68,16.26-26.64,34.21-35.9,53.85c-11.74,25.74-17.61,48.89-17.61,69.43c0,22.35,7.34,41.89,22.01,58.6
		c13.55,14,29.35,21,47.42,21c11.29-0.45,21.22-3.27,29.8-8.47c7.9-4.74,16.71-12.75,26.42-24.05c12.19-14.9,21.9-29.81,29.13-44.71
		C2834.71,2268.67,2851.65,2258.39,2867.23,2239.88z M2738.19,2326.92c-8.81,0-13.21-10.72-13.21-32.18
		c0-22.35,4.4-45.5,13.21-69.43c6.99-19.42,16.25-35.56,27.77-48.43c-3.39,8.36-5.08,17.27-5.08,26.76c0,10.39,2.03,20.78,6.1,31.16
		c6.54,15.36,15.12,25.86,25.74,31.5C2768.55,2306.72,2750.38,2326.92,2738.19,2326.92z M2803.89,2246.65
		c-0.9-0.68-1.47-1.02-1.69-1.02c-8.12-7.67-12.19-19.65-12.19-35.9c0-10.16,1.58-20.66,4.74-31.5
		c3.61-11.74,8.81-21.34,15.58-28.79c3.84-3.39,7.11-5.08,9.82-5.08c5.19,7,7.79,15.81,7.79,26.42c0,11.52-3.05,25.52-9.14,42
		C2814.73,2224.3,2809.76,2235.59,2803.89,2246.65z"/>
	<path d="M3079.12,2347.58c9.93,0,19.19-3.84,27.78-11.52l4.06-3.39c17.61-18.29,42.9-49.22,75.87-92.8
		c18.97-25.06,29.35-38.61,31.16-40.64c0-0.22-6.1-0.34-18.29-0.34c-0.9,0-17.61,17.95-50.13,53.85
		c-25.97,28.68-40.98,43.01-45.05,43.01c-0.9,0-1.35-0.56-1.35-1.69c0-9.26,31.72-60.51,95.17-153.77
		c-1.35-5.42-5.19-11.18-11.52-17.27c-10.61-8.35-22.92-12.53-36.92-12.53c-11.97,0-22.13,3.61-30.49,10.84V2121
		c-4.06,2.71-17.5,15.13-40.3,37.26c-40.19,41.32-70,76.32-89.41,105c17.38-37.03,42.56-78.69,75.53-124.98
		c-0.68-2.93-1.69-5.53-3.05-7.79c-7.45-13.09-20.78-19.65-39.97-19.65c-18.51,0-39.06,20.1-61.64,60.29
		c-11.74,21.23-22.8,45.95-33.19,74.17c-8.81,25.97-13.21,43.35-13.21,52.16c0,11.07,5.65,21.9,16.94,32.51
		c9.94,8.58,21.57,14.34,34.89,17.27c0.45,0,1.35-1.69,2.71-5.08c25.28-46.96,55.99-92.35,92.12-136.16
		c11.74-13.55,23.03-25.96,33.87-37.26l-44.7,100.93c-3.61,11.97-5.42,22.58-5.42,31.84c0,11.07,2.26,20.55,6.77,28.45
		C3058.13,2341.71,3067.38,2347.58,3079.12,2347.58z"/>
	<path d="M452.5,1738.04c-9.48,30.15-14.23,56.72-14.23,79.72c0,14.56,3.39,31.68,10.16,51.36c1.81,6.13,4.52,11.75,8.13,16.86
		c4.07,6.64,11.07,9.96,21,9.96c21.23,0,50.25-15.46,87.06-46.38c8.58-6.9,22.24-19.93,40.99-39.09c0,14.56,2.26,28.36,6.78,41.39
		c5.64,18.14,10.72,29.76,15.24,34.88c4.29,6.13,11.29,9.2,21,9.2c25.29,0,59.62-21.08,102.98-63.24c2.93-3.32,4.74-4.98,5.42-4.98
		c22.81-23.51,44.49-49.83,65.04-78.96c32.07-44.46,58.38-89.56,78.93-135.3c25.52-57.74,38.28-106.04,38.28-144.88
		c0-44.97-16.38-74.48-49.12-88.54l-1.69,10.35c-7.46,41.14-16.04,79.09-25.75,113.83c-36.82,135.43-85.03,237.12-144.65,305.09
		c-17.62,19.93-35.57,35.77-53.86,47.53c-0.91-3.83-1.36-8.05-1.36-12.65c0-16.36,5.64-39.86,16.94-70.52
		c9.48-26.31,24.27-64.64,44.38-114.98c11.74-27.6,17.62-50.84,17.62-69.76c0-33.47-21.23-60.81-63.69-82.02
		c4.07,5.88,6.1,13.03,6.1,21.46v2.68c0,9.46-2.15,20.31-6.44,32.58c-26.2,78.7-43.25,125.08-51.15,139.13
		c-19.43,35.26-41.78,67.71-67.08,97.35c-22.59,24.79-44.16,43.69-64.7,56.73c-0.45-1.02-0.68-3.97-0.68-8.82
		c0-6.13,0.91-14.06,2.71-23.76c3.16-13.54,5.98-23.12,8.47-28.75c12.42-29.64,22.47-52.76,30.15-69.37
		c29.36-64.39,46.41-101.95,51.15-112.68c27.1-61.33,40.65-102.59,40.65-123.8c0-27.08-9.26-50.34-27.78-69.76
		c-17.39-16.61-36.7-24.91-57.93-24.91c-22.58,0-41.79,8.05-57.59,24.15c-19.65,20.7-29.47,47.14-29.47,79.34
		c0,32.2,9.6,59.54,28.79,82.02c-11.97-21.97-17.96-42.93-17.96-62.86c0-25.81,10.28-47.65,30.83-65.54
		c14.68-11.24,28.34-16.86,40.99-16.86c4.52,0,9.15,1.03,13.89,3.07c8.81,4.6,13.21,12.91,13.21,24.91c0,5.36-1.13,11.5-3.39,18.4
		L452.5,1738.04z"/>
	<path d="M1119.35,1772.92c0,11.76,2.14,22.49,6.44,32.19c7.45,14.56,17.16,21.85,29.13,21.85c12.42,0,24.05-7.15,34.89-21.46
		c16.03-19.67,39.63-53.28,70.8-100.8c4.97-7.67,10.11-15.46,15.41-23.38c5.3-7.92,9.03-13.47,11.18-16.67
		c2.15-3.19,3.44-5.04,3.9-5.56c0-0.25-5.88-0.38-17.61-0.38c-1.58,0-14.9,16.1-39.98,48.29c-31.39,40.63-49.46,61.07-54.2,61.32
		c-0.9,0-1.36-0.63-1.36-1.92c0-7.67,28.57-68.22,85.71-181.67c-2.03-6.38-6.55-12.01-13.55-16.86c-9.27-6.38-19.2-9.58-29.81-9.58
		c-11.52,0-21.23,4.09-29.13,12.26l-0.34-0.38c-2.94,2.3-15.7,15.85-38.28,40.63c-43.59,50.08-74.19,90.84-91.81,122.27l-0.34-0.38
		c6.55-17.12,14.23-35.51,23.04-55.19c3.84-8.17,16.26-33.21,37.26-75.12c25.52-50.08,38.28-84.96,38.28-104.64
		c0-16.61-4.74-31.81-14.23-45.61c-1.13-2.04-4.52-6.13-10.16-12.26c-9.48-9.71-19.99-17.37-31.51-23c2.93,4.09,4.4,9.71,4.4,16.86
		c0,9.71-2.49,20.95-7.45,33.73l-92.82,218.09c-5.87,17.63-8.81,36.93-8.81,57.87c0,24.79,5.53,46.38,16.6,64.77
		c6.78,10.22,14.35,16.36,22.7,18.4c15.13-32.96,33.99-67.58,56.57-103.87c21.9-35,46.52-68.48,73.85-100.42
		c-0.46,2.05-14.91,40.5-43.36,115.37C1121.16,1750.44,1119.35,1762.19,1119.35,1772.92z"/>
	<path d="M1417.33,1570.55c-4.52,10.22-10.16,23.25-16.94,39.09l-31.17,74.36c-7.9,23.26-11.86,44.34-11.86,63.24
		c0,14.31,2.71,29.9,8.13,46.76c8.13,21.98,17.84,32.96,29.13,32.96c4.97,0,9.82-1.92,14.57-5.75c2.26-1.53,6.32-5.62,12.2-12.26
		c19.19-23.25,47.65-64.39,85.37-123.42c8.58-13.28,14.23-21.71,16.94-25.3c0-0.25-3.05-0.38-9.15-0.38
		c-6.33,0-10.05,0.38-11.18,1.15c-11.3,13.8-19.88,24.28-25.75,31.43c-40.2,51.36-63.01,77.04-68.43,77.04
		c-0.9,0-1.36-0.63-1.36-1.92c0-3.07,4.52-16.61,13.55-40.63c11.06-27.34,23.82-55.32,38.28-83.94
		c11.52-22.23,23.04-44.97,34.55-68.22V1574c-2.26-2.55-5.31-4.85-9.15-6.9c-10.84-4.6-22.7-6.9-35.57-6.9
		C1432.8,1560.2,1422.07,1563.65,1417.33,1570.55z"/>
	<path d="M1446.8,1515.74c-3.39,6.9-5.08,12.01-5.08,15.33c0,8.69,5.64,13.03,16.94,13.03c11.74,0,22.58-3.96,32.52-11.88
		c6.1-4.6,11.06-10.6,14.91-18.01c10.84-19.42,16.26-34.11,16.26-44.08c0-7.92-2.94-15.33-8.81-22.23
		c-4.97-5.62-9.03-9.33-12.2-11.12c-9.26-6.13-17.5-9.2-24.73-9.2c-2.26,0-4.4,0.38-6.44,1.15c0.68,3.32,1.01,6.65,1.01,9.97
		c0,11.25-3.39,25.68-10.16,43.31C1457.86,1490.44,1453.12,1501.69,1446.8,1515.74z"/>
	<path d="M1679.58,1679.78c4.74-10.47,12.42-26.19,23.04-47.14c18.52-37.3,30.15-61.45,34.89-72.44c10.61,0,23.38-0.77,38.28-2.3
		c24.39-2.55,37.94-4.98,40.65-7.28c4.58-4.02,7.99-8.83,10.25-14.43c10.3,3.85,21.7,7.52,34.33,10.98
		c12.87,3.07,24.85,5.62,35.91,7.66c-33.65,81.26-50.59,122.01-50.81,122.27c-7.68,19.16-11.52,39.23-11.52,60.17
		c0,10.22,1.24,19.93,3.72,29.13c5.42,19.42,10.05,33.35,13.89,41.78c5.65,12.52,12.08,18.78,19.31,18.78
		c5.88,0,12.42-4.08,19.65-12.26c9.26-11.5,18.63-23.89,28.12-37.18c14.45-20.7,34.44-50.59,59.96-89.69l18.97-28.75h-17.95
		c-1.58,0-10.62,10.48-27.1,31.43c-40.88,52.13-63.69,78.19-68.43,78.19c-0.9,0-1.36-0.63-1.36-1.92c0-1.28,0.34-2.81,1.01-4.6
		c7.45-26.06,17.96-53.53,31.51-82.4c4.74-10.47,12.42-26.19,23.04-47.14c18.52-37.3,30.15-61.45,34.89-72.44
		c10.61,0,23.38-0.77,38.28-2.3c24.39-2.55,37.94-4.98,40.65-7.28c9.03-7.92,13.55-18.91,13.55-32.96c0-10.47-2.94-21.71-8.81-33.73
		c-18.07,9.97-40.09,18.78-66.06,26.45c0.68-5.11,1.01-9.71,1.01-13.8c0-16.86-5.2-32.32-15.58-46.38
		c-2.94-4.6-7.11-9.33-12.53-14.18c-8.36-7.92-17.73-14.43-28.12-19.55c2.93,3.32,4.4,8.95,4.4,16.86c0,9.71-2.49,21.08-7.45,34.11
		l-24.39,58.64c-11.06,1.02-23.48,1.53-37.26,1.53c-14.38,0-28.41-0.68-42.12-2c0.36-2.55,0.58-5.18,0.58-7.97
		c0-10.47-2.94-21.71-8.81-33.73c-18.07,9.97-40.09,18.78-66.06,26.45c0.68-5.11,1.01-9.71,1.01-13.8c0-16.86-5.2-32.32-15.58-46.38
		c-2.94-4.6-7.11-9.33-12.54-14.18c-8.36-7.92-17.73-14.43-28.12-19.55c2.93,3.32,4.4,8.95,4.4,16.86c0,9.71-2.49,21.08-7.45,34.11
		l-24.39,58.64c-11.06,1.02-23.48,1.53-37.26,1.53c-27.55,0-53.86-2.43-78.93-7.28c16.72,9.96,39.53,18.91,68.43,26.83
		c12.87,3.07,24.85,5.62,35.91,7.66c-33.65,81.26-50.59,122.01-50.81,122.27c-7.68,19.16-11.52,39.23-11.52,60.17
		c0,10.22,1.24,19.93,3.72,29.13c5.42,19.42,10.05,33.35,13.89,41.78c5.65,12.52,12.08,18.78,19.31,18.78
		c5.88,0,12.42-4.08,19.65-12.26c9.26-11.5,18.63-23.89,28.12-37.18c14.45-20.7,34.44-50.59,59.96-89.69l18.97-28.75h-17.95
		c-1.58,0-10.62,10.48-27.1,31.43c-40.88,52.13-63.69,78.19-68.43,78.19c-0.9,0-1.36-0.63-1.36-1.92c0-1.28,0.34-2.81,1.01-4.6
		C1655.53,1736.12,1666.03,1708.66,1679.58,1679.78z"/>
	<path d="M2287.95,1657.55l-8.13,0.38c-27.1,42.93-53.52,78.96-79.27,108.08c-13.1,14.06-23.49,23.13-31.17,27.21
		c-11.75,6.65-21.57,9.96-29.47,9.96c-14.23,0-21.34-9.33-21.34-27.98c0-7.41,1.02-16.35,3.05-26.83
		c6.32-3.06,15.69-8.94,28.12-17.63c22.58-16.1,44.83-35.39,66.74-57.87c29.81-31.43,44.72-56.85,44.72-76.27
		c0-7.41-2.37-14.05-7.11-19.93c-11.74-12.01-27.22-18.01-46.41-18.01h-1.02c-21.46,0-42.68,8.05-63.69,24.15
		c-25.07,18.91-46.86,46.76-65.38,83.56c-16.71,32.45-25.07,61.71-25.07,87.77c0,26.06,9.15,45.36,27.44,57.88
		c14.23,9.96,30.6,14.95,49.12,14.95c18.97,0,36.81-5.62,53.52-16.86c11.52-7.66,24.05-19.03,37.6-34.11
		c28.23-33.21,53.64-72.56,76.22-118.05L2287.95,1657.55z M2148.04,1680.17c8.13-15.07,17.96-30.91,29.47-47.53
		c20.33-29.13,36.02-43.69,47.09-43.69c5.19,0,7.79,1.92,7.79,5.75c0,8.69-7.57,24.28-22.7,46.76
		c-10.84,15.33-23.94,31.69-39.3,49.06c-19.2,20.19-34.44,33.48-45.73,39.86C2128.06,1718.88,2135.85,1702.14,2148.04,1680.17z"/>
	<path d="M2499.19,1580.9c-7.46-14.82-20.78-22.23-39.97-22.23c-18.52,0-39.08,22.75-61.66,68.22c-11.74,24.02-22.81,52-33.2,83.94
		c-8.81,29.39-13.21,49.06-13.21,59.03c0,12.52,5.65,24.79,16.94,36.79c9.94,9.71,21.57,16.23,34.89,19.55
		c0.45,0,1.35-1.92,2.71-5.75c25.29-53.14,56.01-104.5,92.14-154.08c11.74-15.33,23.04-29.38,33.88-42.16L2487,1738.42
		c-3.61,13.55-5.42,25.55-5.42,36.03c0,12.52,2.26,23.26,6.78,32.2c6.78,13.29,16.03,19.93,27.78,19.93
		c9.94,0,19.19-4.34,27.78-13.03l4.07-3.83c17.62-20.7,42.91-55.7,75.88-105.02c18.97-28.36,29.36-43.69,31.17-45.99
		c0-0.25-6.1-0.38-18.29-0.38c-0.9,0-17.61,20.31-50.14,60.94c-25.97,32.45-40.99,48.67-45.05,48.67c-0.91,0-1.36-0.63-1.36-1.92
		c0-10.47,31.73-68.47,95.19-174.01c-1.36-6.13-5.2-12.65-11.52-19.55c-10.62-9.45-22.93-14.18-36.92-14.18
		c-11.98,0-22.14,4.09-30.49,12.26v-0.38c-4.06,3.07-17.5,17.12-40.31,42.16c-40.2,46.76-70.01,86.37-89.43,118.82
		c17.39-41.9,42.57-89.05,75.55-141.43C2501.56,1586.39,2500.55,1583.45,2499.19,1580.9z"/>
	<path d="M1102.78,2117.94c0,0,18.42-2.89,34.21,3.75c15.79,6.65,43.44,14.54,43.44,14.54l-16.43-12.47c0,0,19.88,7.23,25.39,15.31
		c0,0-2.67-14.95-21.79-25.25c0,0,8.15-0.85,16.37,6.06c0,0,1.42-14.38-24.83-18.21c-24.12-4.04-25.28-4.23-25.28-4.23l3.14,3.47
		c0,0-23.51-1.91-35.74-0.63c-12.22,1.28-12.99,2.65-12.99,2.65l6.8,0.32c0,0-16.09,2.87-26.77,23.36c0,0,25.72-11.12,39.5-11.83
		L1102.78,2117.94z"/>
	<path d="M1278.32,2149.77c6.62-7.2,27.33-11.49,27.33-11.49l-18.06,9.96c0,0,28.5-3.82,45.09-8.12c16.59-4.3,34.4,1.23,34.4,1.23
		l-4.51-3.85c13.53,2.7,37.38,17.41,37.38,17.41c-7.61-21.82-23.12-26.98-23.12-26.98l6.78,0.66c0,0-0.56-1.46-12.47-4.49
		c-11.91-3.03-35.45-4.53-35.45-4.53l3.61-2.98c0,0-1.18,0.01-25.63,0.53c-26.53,0-27.2,14.44-27.2,14.44
		c9.13-5.65,17.07-3.63,17.07-3.63C1283.12,2135.36,1278.32,2149.77,1278.32,2149.77z"/>
	<path d="M1104.12,2174.97c1.39,0.71-2.52,2.57,1.62,1.73c4.14-0.84,9.17-0.74,9.17-0.74c5.19-0.2-2.58-3.4-2.01-4.28
		c0.57-0.88,1.71-4.09,5.94-3.84c4.23,0.25,0.21,6.55,4.88,8.11c4.67,1.56,19.83,2.73,24.63,2.1c4.64-1.94,4.23-14.46,8.19-12.02
		c3.96,2.58,9.1,7.2,5.61,8.39c-3.48,1.2-9.29,3.44-4.77,3.98c14.14,1.47,23.78,4.87,25.66,2.57s-2.84-7.74-12.95-14.05
		c-32.5-17.75-53.95-6.41-69.11-0.29c-18.34,8.91-22.94,14.93-21.34,14.84c1.6-0.09,5.36-3.04,6.24-2.83
		c0.88,0.21-4.47,4.85,0.61,2.69C1097.14,2176.05,1102.73,2174.25,1104.12,2174.97z M1145.54,2166.57c1.33-0.01,2.42,1.38,2.43,3.11
		c0.02,1.73-1.05,3.14-2.37,3.15c-1.33,0.01-2.42-1.38-2.43-3.11C1143.15,2167.99,1144.22,2166.58,1145.54,2166.57z
		 M1130.39,2161.61c1.35-0.01,2.45,1.07,2.46,2.42c0.01,1.35-1.07,2.45-2.42,2.46s-2.45-1.07-2.46-2.42
		C1127.96,2162.73,1129.04,2161.63,1130.39,2161.61z"/>
	<path d="M1083.86,2168c3.06-1.89,7.25-4.66,10-7.2c4.76-4.41,12.4-13.37,47.52-11.37c15.6,1.6,19.1,2.3,28.37,11.82
		c3.1,3.12,6.16,5.21,8.35,6.48c0.67,0.39,1.36-0.46,0.85-1.04c-3.05-3.44-8.21-9.35-10.43-12.42c-3.25-4.48-15.24-10.05-46.53-7.86
		c-19.35,2.08-23.83,5.47-29.17,10.47c-3.18,2.98-7.13,7.18-9.8,10.09C1082.47,2167.54,1083.19,2168.41,1083.86,2168z"/>
	<path d="M1176.4,2187.68c0,0-20.15,9.66-40.25,9.99c-13.96,1.88-22.52,5.46-22.52,5.46s14.27-0.72,25.19-0.97
		C1149.74,2201.92,1171.68,2196.76,1176.4,2187.68z"/>
	<path d="M1124.79,2197.78c-26.71-5.72-31.41,4.96-31.41,4.96C1105.12,2196.37,1124.79,2197.78,1124.79,2197.78z"/>
	<path d="M1195.08,2145.34c5.96,14.13,6.07,26.24,6.07,26.24C1207.27,2156.37,1195.08,2145.34,1195.08,2145.34z"/>
	<path d="M1338.14,2165.04c21.45,3.88,31.91,17.32,31.91,17.32s1.93-11.81-27.27-19.4c-17.51-3.33-51.62-6.94-67.21,23.65
		C1275.57,2186.6,1295.85,2159.61,1338.14,2165.04z"/>
	<path d="M1372.63,2193.99c-3.81-2.59-9.25-7.49-25.94-16.79c-21.66-11.45-39.79-2.97-46.6,0.44c-6.81,3.41-18.11,9.64-18.11,9.64
		c-3.17,3.09-0.55,3.74,1.06,3.78c1.6,0.03,5.82-0.44,12.9-1.58c7.08-1.14,10.52-1.22,8.28-2.51c-2.25-1.29-6.2-3.68-5.57-4.17
		c1.34-2.2,9.05-7.85,8.6-4.16c-0.45,3.69,0.19,9.71,2.23,10.27c2.04,0.56,15.08,3.16,21.39,2.71c6.31-0.45,8.35-9.79,9.4-11.93
		c8.08,2.35,16.4,9.46,11.65,9.99s-15.12,2.91-6.96,3.12c8.16,0.21,10.93,0.77,17.93,2.02
		C1369.89,2196.05,1376.45,2196.57,1372.63,2193.99z M1312.08,2182.28c-1.05,0.01-1.9-1.2-1.92-2.7c-0.01-1.5,0.82-2.73,1.87-2.74
		c1.05-0.01,1.9,1.2,1.92,2.7C1313.97,2181.04,1313.13,2182.27,1312.08,2182.28z M1330.96,2186.66c-1.47,0.01-2.68-1.37-2.7-3.08
		c-0.02-1.72,1.17-3.12,2.64-3.13c1.47-0.01,2.68,1.37,2.7,3.08C1333.62,2185.24,1332.44,2186.65,1330.96,2186.66z"/>
	<path d="M1333.85,2217.42c0.77-0.03,0.83-1.13,0.07-1.26c-14.36-2.48-31.79-10.21-38.92-13.57c-0.65-0.31-1.23,0.55-0.7,1.04
		C1307.84,2216.45,1324.99,2217.75,1333.85,2217.42z"/>
	<path d="M1178.82,2278.58c0.13,0.54,0.57,0.93,1.11,0.97c0,0,0,0,0,0c2.58,0.19,5.43,0.89,9.47,7.07c0.01,0.02,0.05,0.07,0.07,0.09
		c5.49,7.03,12.39,4.37,15.1,2.9c0.91-0.5,2.01-0.38,2.85,0.32c4.8,3.92,9.38,5.58,12.38,6.28c0.09,0.02,0.19,0.03,0.28,0.03
		c0.48,0,0.92-0.3,1.11-0.79c0.24-0.61,0-1.29-0.55-1.6c-3.69-2.06-8.69-6.57-17.2-14.7c-9.65-9.21-20.83-3.84-24.02-1.97
		C1178.93,2277.46,1178.7,2278.03,1178.82,2278.58z M1180.06,2277.75L1180.06,2277.75L1180.06,2277.75
		C1180.06,2277.75,1180.06,2277.75,1180.06,2277.75z"/>
	<path d="M1175.74,2264.68l0.08-0.45c0.14-0.74,0.31-1.46,0.48-2.17c0.18-0.71,0.37-1.39,0.57-2.06c0.17-0.58,0.36-1.14,0.54-1.68
		l0.08-0.22c0.39-1.13,0.81-2.26,1.25-3.35c0.4-1,0.78-1.86,1.09-2.57c0.63-1.41,1.03-2.23,1.03-2.23c0.19-0.39,0.08-0.85-0.26-1.12
		c-0.34-0.26-0.82-0.25-1.15,0.04c0,0-1.4,0.65-4.66,3.36c-32.72,23.8-38.08,46.15-38.08,46.15c17.47-21.76,33.35-32.81,33.73-34.35
		c-0.14,0.52-0.27,1.03-0.38,1.54c-0.05,0.22-0.1,0.45-0.15,0.71l-0.04,0.19c-0.03,0.17-0.07,0.35-0.09,0.54
		c-0.07,0.46-0.13,0.93-0.17,1.38c-0.04,0.36-0.07,0.72-0.09,1.08l-0.03,0.69c-0.01,0.41-0.02,0.82,0,1.21
		c0.02,1.01,0.11,2.04,0.28,3.05c0.14,0.92,0.38,1.91,0.75,3.06l0.25,0.72c0.06,0.16,0.12,0.32,0.19,0.48l0.09,0.23
		c0.14,0.35,0.3,0.7,0.47,1.04l0.57,1.1l0.82,1.33c0.12,0.17,0.24,0.34,0.36,0.51l0.08,0.11c1.12,1.55,2.49,2.99,4.08,4.26
		c1.33,1.07,2.83,2.05,4.48,2.92c1.35,0.69,2.79,1.31,4.27,1.84c0.23,0.08,0.45,0.15,0.67,0.22l0.63,0.2
		c0.23,0.07,0.45,0.15,0.68,0.2l0.61,0.16c0.4,0.11,0.78,0.21,1.16,0.3l0.54,0.12c0.35,0.08,0.69,0.15,1.03,0.22l0.17,0.03
		c0.42,0.07,0.8,0.14,1.15,0.19l1.09,0.15c0.32,0.04,0.59,0.07,0.81,0.09l0.65,0.06c0.03,0,0.06,0,0.1,0c0.4,0,0.75-0.27,0.86-0.66
		c0.12-0.42-0.08-0.86-0.47-1.06l-0.58-0.29c-0.18-0.09-0.39-0.19-0.63-0.3c-0.3-0.14-0.64-0.3-1.03-0.5
		c-0.25-0.13-0.53-0.26-0.82-0.4l-0.34-0.16c-0.27-0.14-0.56-0.29-0.87-0.44l-2.38-1.25c-0.41-0.23-0.84-0.46-1.25-0.7
		c-0.2-0.12-0.4-0.24-0.6-0.36c-0.37-0.22-0.74-0.44-1.14-0.71c-0.57-0.35-1.13-0.74-1.75-1.17c-1.25-0.89-2.4-1.84-3.44-2.84
		c-0.15-0.13-0.28-0.28-0.42-0.42c-0.13-0.13-0.25-0.27-0.36-0.37c-0.16-0.17-0.31-0.34-0.47-0.52l-0.27-0.3
		c-0.46-0.57-0.94-1.18-1.38-1.85c-0.43-0.63-0.8-1.34-1.11-1.93c-0.29-0.63-0.62-1.36-0.85-2.11c-0.26-0.82-0.45-1.54-0.57-2.22
		l-0.13-0.77c-0.02-0.12-0.04-0.23-0.05-0.34l-0.02-0.16c-0.04-0.33-0.07-0.66-0.09-1.01c-0.11-1.39-0.06-2.9,0.14-4.62
		C1175.54,2265.88,1175.64,2265.27,1175.74,2264.68z"/>
	<path d="M1240.44,2297.38c0.07,0,0.14-0.01,0.22-0.02c3.02-0.58,7.66-2.07,12.61-5.8c0.87-0.66,1.97-0.74,2.86-0.21
		c1.64,0.97,4.85,2.46,8.43,1.85c-0.06,0.03-0.13,0.06-0.18,0.08l-0.59,0.26c-0.4,0.18-0.61,0.61-0.52,1.03
		c0.1,0.41,0.47,0.71,0.89,0.7c0.01,0,0.02,0,0.02,0l0.65-0.02c0.21-0.01,0.48-0.02,0.78-0.04l1.07-0.09
		c0.34-0.03,0.71-0.08,1.11-0.12l0.21-0.02c0.32-0.04,0.65-0.1,0.99-0.15l0.53-0.08c0.29-0.04,0.59-0.1,0.89-0.17l0.86-0.18
		c0.26-0.05,0.52-0.11,0.78-0.18l1.19-0.31c1.25-0.37,2.73-0.84,4.27-1.52c1.7-0.75,3.18-1.57,4.54-2.51l0.58-0.4
		c0.15-0.11,0.3-0.23,0.45-0.35l0.28-0.22c0.13-0.1,0.26-0.2,0.38-0.31l0.5-0.44c0.27-0.23,0.53-0.47,0.79-0.73l0.27-0.26
		c0.14-0.13,0.26-0.26,0.39-0.4l0.31-0.34c0.11-0.12,0.23-0.25,0.35-0.39l1.38-1.82l0.61-0.97l0.72-1.37
		c0.17-0.35,0.33-0.69,0.46-1.03c0.76-1.84,1.23-3.83,1.39-5.92c0.1-1.09,0.06-2.14,0.03-2.93c-0.05-0.89-0.15-1.81-0.32-2.8
		c-0.12-0.65-0.25-1.23-0.38-1.79l14.58,13.91c0.49,0.47,1.24-0.16,0.87-0.73c-14.03-21.41-23.86-27.93-23.86-27.93
		c-0.32-0.29-0.8-0.31-1.14-0.05c-0.35,0.26-0.46,0.72-0.28,1.11c0,0.01,0.37,0.81,0.95,2.2c0.29,0.7,0.64,1.55,1,2.53
		c0.4,1.07,0.78,2.17,1.13,3.27l0.11,0.36c0.15,0.49,0.3,0.99,0.44,1.52l0.31,1.2c0.06,0.26,0.13,0.53,0.18,0.81
		c0.16,0.75,0.29,1.44,0.39,2.1c0.09,0.67,0.2,1.44,0.26,2.18l0.02,0.24c0.02,0.29,0.04,0.58,0.04,0.88l0.02,0.55l0,0.6
		c0,0.11,0,0.21-0.01,0.32l-0.01,0.31c-0.01,0.14-0.01,0.28-0.03,0.44l-0.11,1.11c-0.19,1.52-0.56,2.95-1.11,4.26
		c-0.08,0.22-0.18,0.43-0.28,0.64l-0.94,1.73l-0.95,1.35c-0.56,0.7-1.01,1.21-1.46,1.66l-0.41,0.41c-0.07,0.07-0.15,0.14-0.22,0.21
		l-0.16,0.14c-0.15,0.13-0.3,0.27-0.4,0.37l-0.44,0.37c-1.04,0.87-2.22,1.71-3.51,2.52l-0.89,0.54l-2.63,1.43
		c-0.96,0.48-1.87,0.91-2.75,1.31c0.8-0.59,1.6-1.33,2.37-2.25c0.02-0.02,0.05-0.07,0.07-0.09c4.27-6.02,7.15-6.61,9.73-6.7
		c0.54-0.02,1-0.39,1.14-0.93c0.15-0.55-0.06-1.12-0.53-1.42c-3.12-1.99-14.08-7.79-24.08,1.04c-8.82,7.8-13.99,12.11-17.76,14.03
		c-0.57,0.29-0.83,0.96-0.62,1.58C1239.47,2297.06,1239.94,2297.39,1240.44,2297.38z"/>
	<path d="M1127.45,2306.07c-11.2,6.1-32.03,20.73-25.08,42.35c0.26,0.81,1.45,0.62,1.46-0.23c0.08-7.72,3.28-23.56,24.44-40.89
		C1128.97,2306.73,1128.24,2305.63,1127.45,2306.07z"/>
	<path d="M1331.66,2311.49c-0.61-0.23-1.14,0.5-0.74,1.01c4.38,5.71,16.68,25.37,8.77,58.3c-0.19,0.77,0.9,1.15,1.23,0.43
		C1347.4,2356.83,1359.69,2321.79,1331.66,2311.49z"/>
	<path d="M1091.72,2318.47c-12.54,13.37-5.28,27.74-1.44,33.47c0.33,0.49,1.07,0.12,0.9-0.44c-4.41-14.62-0.61-27.38,1.37-32.49
		C1092.76,2318.49,1092.1,2318.07,1091.72,2318.47z"/>
	<path d="M1153.01,2337.39c-10.55,3.29-17.17,5.37-21.1,5.8c-2.59,0.29-4.78,2.05-5.58,4.53c-1.52,4.66-3.59,11.75-3.19,14.5
		c0.62,4.27,8.19,3.61,15.25,10.54c7.03,6.9,29.06,34.48,86.1,27.86c0.38-0.04,0.77-0.16,1.16-0.15
		c53.99,0.87,50.12-8.27,78.06-20.72c8.11-4.55,8.24,8.47,15.03-12.38c6.79-20.84-1.1-13.97-13.38-18.71
		c-12.14-4.69-35.17-23.36-75.07-12.23c-0.99,0.28-2.06,0.09-3.04-0.23C1196.68,2326.5,1182.24,2328.27,1153.01,2337.39z
		 M1249.26,2392.59c-2.12,1.57-9.66,4.95-15.6,2.96c-2.6,1.97-7.94,2.02-15.03,0.82c-3.07,2.94-8.71,3.77-15.34,1.01
		c-3.09,1.77-6.2,1.23-12.34-0.65c-5.8,2.48-10.89-1.55-10.89-1.55l0.9-7.19c0,0,10.21,2.04,17.29,0.31
		c13.46,6.17,24.19-0.23,24.19-0.23c13.57,5.49,23.78,1.34,26.86-1.12c7.39,1.39,12.52-0.51,12.52-0.51l1.4,4.06
		C1263.22,2390.51,1259.1,2396.09,1249.26,2392.59z M1287.83,2374.79c-0.84,4.03-5.12,3.11-5.12,3.11s-2.29,4.49-6.95,4.05
		c-7.01,8.32-12.99,1.68-12.99,1.68s-8.33,2.31-14.56-0.06c-10.8,7.38-21.92,2.83-25.8,0.54c-4.4,5.28-20.55,5.63-23.91-0.07
		c-3.28,2.07-11.83,1.86-16.71-1.3c-7.12,6.96-11.89,5.94-14.73,2.47c-2.52,0.51-5.05-0.34-8.2-5.07c-4.16,1.69-5.85-2.95-5.85-2.95
		l-1-13.78c0,0,3.77-1.49,5.88,5.67c2.02-12.74,4.02-5.96,8.23-2.21c3.76-23.24,12.16-7.88,16.03,1.21
		c7.44-14.44,14.8-5.38,16.85,5.2c11.71-24.36,19.29-13.5,24.99-6.57c9.94-16.21,21.2-6.41,23.89,0.84
		c5.02-13.25,12.36-7.01,14.96,0.73c7.65-12.6,12.57-5.65,13.4-0.13c1.82-2.54,4.65-1.02,6.51,0.13c2.4-2.64,5.04-0.73,5.04-0.73
		L1287.83,2374.79z M1218.53,2340.35c6.18,2.02,12.78,2.34,19.17,1.13c15.16-2.87,30.26-4.01,48.2,2.8c1.28,0.48,0.96,2.38-0.4,2.44
		c-18.2,0.73-76.69,2.48-122.33-2.71c-1.38-0.16-1.52-2.11-0.18-2.47C1173.9,2338.62,1198.11,2333.68,1218.53,2340.35z"/>
	<path d="M1286.3,2402.11c-13.45,6.92-30.07,12.95-63.56,11.8c-0.04,0-0.08,0-0.12,0.01c-29.44,4.28-49.94-4.36-59.26-9.66
		c-0.71-0.4-1.41,0.53-0.83,1.1c19.94,19.64,22.68,19.97,42.12,19.79c0.04,0,0.08,0,0.12-0.01c29.61-5.5,37.11,7.42,51.4-0.48
		c9.58-5.3,23.04-15.34,30.88-21.38C1287.72,2402.76,1287.06,2401.72,1286.3,2402.11z"/>
	<path d="M1575.63,2592.14c-46.74-14.12-128.52-40-128.52-40c-13.13-51.21-40.14-99.27-74.49-104.85l-0.01,0
		c22.95-29.69,31.84-59,35.68-89.17c23.05,6.33,30.55-29.98,37.57-59.52c7.28-30.65,11.4-26.91,14.51-67.42
		c3.11-40.52-20.72-34.76-20.72-34.76s-0.01,0.01-0.01,0.01c2-6.08,3.32-12.59,3.33-19.26c0.02-28.55-0.28-30-0.28-30l4.17,10.16
		c0,0,2.22-42.55-1.9-77.46l5.35,11.02c0,0,3.35-46.34-27.12-96.16c-9.33-31.37-10.34-25.73-31.23-58.15l1.65,10.08
		c0,0-23.97-29.68-60.35-57.68l4.76,10.05c0,0-83.31-62.52-176.16-24.74l6.23,1.88c0,0-54.71,4.79-116.99,72.57l9.29-3.58
		c0,0-16.94,15.69-31.77,49.62l8.88-5.52c0,0-25.29,35.97-31.12,76.8l7.31-7.45c0,0-9.85,26.5-9.26,88.64
		c0.53,8.2,1.21,16.97,2.13,25.37c-6.73-1.94-20.13-0.53-28.45,35.46c-2.74,18.67-1.33,44.29,0.69,72.81
		c1.99,28.14,4.07,65.06,41.92,42.77c6.08,43.51,17.65,67.58,35.17,98.58c1.35,13.63,4.34,43.3,7.92,76.25
		c-14.07,11.75-24.02,24.79-30.7,38.59c-14.51,4.85-114.98,38.15-190.31,55.58c-81.06,18.75-143.13,28.67-211.14,133.01
		c5.09,3.28,10.39,6.65,15.91,10.11c13.72-22.7,16.81-23.29,32.07-24.49c13.28-1.04,3.86,13.33-5.46,40.81
		c8.65,5.2,17.7,10.54,27.19,16.01c4.93-14.85,9.58-30.42,13.32-45.79c5.51-22.65,11.59-39.71,22.77-53.79
		c0.21-0.07,0.41-0.16,0.59-0.29c57.18-41.88,102.29-47.33,81.94,7.65c-16.23,46.14-16.17,95.9-14.23,124.55
		c0.18,2.71,4.15,2.8,4.45,0.09c21.32-192.95,171.35-194.47,185.81-176.12c15.04,19.08,44.4,74.73,22.39,57.75
		c-22.01-16.98-76.5-50.25-28.9-7.01c34.85,31.66,66.63,86.29,81.16,113.29c5.2,12.18,10.19,27.5,13.15,45.72
		c0.9,6.23,1.38,10.09,1.45,10.69c0,0.03,0.01,0.06,0.01,0.09c26.11-19.47,8.78-110.77,21.65-104.48
		c12.88,6.29,25.28,24.23,33.02,42.21c6.34,14.73,18.1,64.58,22.14,82.14c-3.89,3.78-7.65,6.87-10.79,9.8
		c-11.72,10.91-24.49,6.87-37.08,75.52c4.24,1.39,8.5,2.78,12.79,4.16c8.63-42.9,16.17-50.98,33.73-67.53
		c23.1-21.77,44.37-51.68,48.1-87.84c3.51-33.93,16.43-48.45,40.14-51.76c2.5,10.52,5.41,24.02,7.84,38.71
		c0.01,0.07,2.74,22.55-25.33,67.59c-22.25,35.71-34.54,81.14-41.39,120.24c4.81,1.41,9.65,2.82,14.52,4.21
		c20.45-87.31,35.73-103.24,39.98-113.5c2.76-6.64,11.06-23.08,17.1-35.48c0.81,16.13,0.17,31.71-2.93,44.67
		c0,0,121.54-84.16,188.51-209.75c9.14-18.4,10.61-48.56,6.04-80.62c0,0,239.08,66.66,233.32,73.72
		c-5.76,7.06-101.78,48.42-73.77,53.11c69.67-25.13,144.26-22.34,166.58-2.74s10.88,73.01-21.08,143.22
		c-28.63,62.9-78.86,190.75-89,216.68c0.94,0.1,1.87,0.2,2.81,0.29c7.45-9.54,26.23-39.73,72.11-134.98
		c85.7-177.92,90.58-154.67,109.69-105.33c71.48,166.52,113.1,255.84,113.1,255.84s-68.58-230.04-117.31-330.95
		C1801.05,2651.17,1622.37,2606.26,1575.63,2592.14z M1440.83,2209.8c3.16,0.06,5.57,2.67,7.28,7.4c1.35,3.73,1.95,8.23,2.1,13.07
		c0.37,11.63-0.94,23.19-3.46,34.65c-1.72,7.81-4.06,15.03-6.55,22.11c-0.12,0.34-0.23,0.69-0.34,1.04c0.61-0.93,1.18-1.9,1.63-3.04
		c0.17-0.42,0.33-0.85,0.49-1.28c-1.34,4.46-2.53,8.72-3.72,13.04c-0.57,1.18-1.15,2.35-1.73,3.51c-2.43,4.87-4.85,9.76-7.23,14.71
		c-0.6,1.23-1.06,2.71-1.59,4.07c0.05,0.08,0.1,0.16,0.15,0.23c0.17-0.24,0.35-0.45,0.52-0.71c2.22-3.5,4.45-6.96,6.65-10.52
		c0.06-0.1,0.12-0.21,0.19-0.31c-1.8,6.33-3.84,13.18-6.54,21.25c-5.93,17.77-14.41,19.6-19.28,18.92
		c0.97-10.55,1.91-21.23,2.8-31.64c2.15,1.06,4.83-1.04,6.19-5.12c0.99-2.97,2.25-5.28,3.82-6.74c1.35-1.26,2.74-2.38,4.13-3.34
		c3.17-2.18,5.75-5.9,7.45-12.03c0.18-0.63,0.36-1.26,0.55-1.88c2.07-6.61,3.19-13.52,3.2-20.71c0.01-8.27-1.43-14.85-4.69-19.18
		c-0.13-0.18-0.29-0.31-0.43-0.46c-0.04,0.09-0.08,0.17-0.12,0.26c0.08,0.35,0.15,0.72,0.25,1.05c0.31,1,0.7,1.9,0.94,2.97
		c0.52,2.29,0.99,4.64,1.45,7.01c0.16,0.86,0.07,1.92-0.44,2.45c-0.49,0.52-0.87,0.04-1.12-0.75c-0.07-0.22-0.14-0.44-0.2-0.65
		c-1.1-3.42-2.44-6.38-4.15-8.61c-0.89-1.16-1.8-2.26-2.66-3.5c-1.02-1.47-2.07-2.9-2.97-4.65c-1.14-2.23-1.64-5.19-1.25-8.82
		c0.54-5.04,3.02-10.39,5.53-11.78c0.51-0.29,1.14-0.42,1.56-0.07c0.74,0.62,1.49,1.42,1.99,2.59c0.77,1.83,1.32,4.03,1.97,6.07
		c0.78,2.47,1.68,4.73,3.07,5.94c2.21,1.94,4.53-1.36,4.59-6.53c0.05-3.71-0.87-6.18-2.24-7.99c-0.89-1.18-1.62-2.62-1.85-4.87
		c-0.27-2.57,0.37-5.02,1.7-6.12C1439.23,2210.26,1440.07,2209.79,1440.83,2209.8z M1415.78,2273.12c0.39-4.84,0.75-9.4,1.08-13.59
		c1.18,8.98,3.57,15.92,7.86,19.62c0.06,0.05,0.11,0.17,0.21,0.35c-0.29,0.1-0.5,0.19-0.72,0.24c-2.35,0.58-4.29-0.8-5.99-3.3
		c-0.7-1.03-1.33-2.18-1.91-3.43c0,0,0,0,0,0C1416.12,2273.02,1415.94,2273.06,1415.78,2273.12z M1427.21,2060.79l8.22,27.89
		l-1.78-34.06c9.27,25.84,9.3,80.44,9.3,80.44l-5.79-17.17l0.14,14.76c-0.09,51.85-14.59,78.98-14.59,78.98
		c3.97-11.49,5.94-46.47,5.94-46.47l-6.99,17.77l3.98-51.62l-3.17,3.95c3.2-31.35,0.92-41.22,0.92-41.22l-4.56,10.38
		c-2.59-27.06-6.8-57.37-6.8-57.37c10.37,18.06,16.69,40.52,16.69,40.52L1427.21,2060.79z M1361.08,1927.14l-6.82-12.75
		c0,0,46.76,37.52,68.73,101.49c0,0-25.56-44.03-43.74-66.39c0,0,19.65,35.51,22.74,53.57c0,0-31.33-78.64-113.87-90.38
		c0,0,40.24,4.86,62.21,17.76c0,0-40.27-38.65-91.35-50.4C1258.98,1880.04,1314.92,1880.97,1361.08,1927.14z M1377.77,1997.76
		c0,0-49.13-61.38-119.03-60.72c0,0,30.45-3.98,38.33-2.01c0,0-21.99-15.23-100.58-9.83c0,0,63.59-20.99,131.44,7.79l23.41,11.14
		l-13.43-3.08c0,0,48.58,24.01,69.56,86.73c0,0-21.6-35.91-42.2-58.15L1377.77,1997.76z M1314.26,1976.13
		c0,0-30.41-12.71-102.94-2.23c0,0,13.14-6.64,31.34-12.63c0,0-21.78-2.9-87.16,23.35c0,0,17.02-12.3,51.79-26.51
		c0,0-13.96,2.07-51.94,10.98c0,0,72.96-46.91,159.88-13.16l-21.75-0.38c0,0,43.79,9.19,70.65,37.98c0,0-34.44-17.54-62.24-26.21
		L1314.26,1976.13z M1146.07,1968.01l-52.16,33.5l15.35-19.56l-56.7,41.7c124.62-128.17,206.71-92.44,206.71-92.44
		c-43.33-3.09-52.96,5.16-52.96,5.16c24.82-3.73,30.3,1.27,30.3,1.27c-60.46,2.61-109.29,34.82-109.29,34.82L1146.07,1968.01z
		 M1062.29,1984.13c73.4-82.07,156.51-82.44,156.51-82.44c-69.87,16.58-82.74,38.84-82.74,38.84l45.68-15.97
		c-104.1,51.72-148.48,110.15-148.48,110.15c37.55-53.95,73.02-81.08,73.02-81.08C1092.34,1959.2,1062.29,1984.13,1062.29,1984.13z
		 M1323.39,1914.1c0,0-37.56-8.77-75.04-8.61l21.33-3.11c0,0-17.93-6.82-49.98-8.07C1219.7,1894.3,1265.25,1885.68,1323.39,1914.1z
		 M1193.59,1885.23c62.42-11.46,98.57,12.08,98.57,12.08C1237.17,1879.9,1193.59,1885.23,1193.59,1885.23z M1283.37,1912.15
		c-70.9-2.24-111.74,11.15-111.74,11.15C1228.67,1898.88,1285.34,1912.21,1283.37,1912.15z M1090.86,1925.42l-17.79,7.94
		c91.7-76.99,178.47-60.33,178.47-60.33c-48.93,0.07-86.8,20.24-86.8,20.24c41.23-5.98,64.81-4.5,64.81-4.5
		c-79.97,6.25-120.41,39.2-120.41,39.2c18.94-9.89,39.09-14.35,39.09-14.35c-19.34,7.95-77.24,45.39-77.24,45.39l-20.84,14.18
		C1064.3,1950.92,1090.86,1925.42,1090.86,1925.42z M1034.7,2002.75c19.5-29.9,46.47-44.71,46.47-44.71
		c-20.9,18.57-30.83,35.54-30.83,35.54l11.31-5.06l-42.61,52.83l23.19-42.45L1034.7,2002.75z M996,2315.66
		c-3.3-8.48-7.48-14.24-9.27-34.77c0.95,3.28,2.01,6.44,3.18,9.5c1.49,3.91,3.03,7.73,4.55,11.58c0.11,0.29,0.25,0.53,0.37,0.79
		c0.06-0.07,0.12-0.13,0.19-0.2c-0.26-1.44-0.44-2.98-0.8-4.3c-1.42-5.31-2.87-10.57-4.34-15.8c-1.53-5.45-3.01-10.97-3.94-17.08
		c-0.03-1.42-0.06-2.87-0.07-4.39c-0.02-1.99-0.04-4.02-0.05-6.07c0.02,0.11,0.04,0.22,0.07,0.35c0.64,3.77,1.29,7.53,1.99,11.25
		c0.23,1.21,0.6,2.27,1.03,3.29c-0.05-0.36-0.09-0.73-0.14-1.09c-1.12-7.42-2.06-14.96-2.28-22.95
		c-0.32-11.73,0.56-23.33,3.11-34.68c1.06-4.73,2.5-9.03,4.52-12.44c2.57-4.33,5.43-6.44,8.54-5.9c0.75,0.13,1.49,0.75,2.12,1.5
		c1.1,1.32,1.27,3.85,0.52,6.33c-0.65,2.16-1.63,3.44-2.73,4.43c-1.69,1.53-3.05,3.77-3.7,7.43c-0.91,5.09,0.75,8.76,3.29,7.27
		c1.59-0.93,2.89-2.99,4.13-5.26c1.02-1.88,1.98-3.94,3.08-5.59c0.71-1.06,1.6-1.71,2.44-2.17c0.43-0.24,0.94-0.05,1.37,0.25
		c0.21,5.47,0.5,12.25,0.89,20.59c-0.13,0.19-0.26,0.39-0.4,0.57c-1.21,1.55-2.51,2.75-3.79,4.01c-1.08,1.06-2.18,1.97-3.27,2.94
		c-2.1,1.87-3.97,4.53-5.69,7.68c-0.11,0.2-0.22,0.4-0.32,0.6c-0.39,0.73-0.86,1.12-1.24,0.52c-0.4-0.62-0.29-1.68,0.03-2.49
		c0.89-2.24,1.79-4.46,2.74-6.61c0.44-1.01,0.99-1.82,1.48-2.74c0.16-0.3,0.3-0.65,0.44-0.98c-0.02-0.09-0.05-0.18-0.07-0.28
		c-0.17,0.12-0.35,0.22-0.51,0.37c-4.01,3.63-6.66,9.83-8.21,17.95c-1.34,7.06-1.54,14.06-0.75,20.94c0.07,0.64,0.13,1.29,0.19,1.95
		c0.52,6.34,2.35,10.48,5.06,13.22c1.19,1.2,2.34,2.56,3.43,4.06c1.27,1.73,2.07,4.23,2.49,7.34c0.62,4.66,3.24,7.31,5.76,5.95
		c2.2-1.19,3.85-6.01,3.71-11.1c-0.07-2.52-0.31-4.98-0.48-7.46c-0.06-0.85-0.11-1.71-0.2-2.55c-0.39-4.12,0.05-7.89,1.16-11.36
		c0.06-0.19,0.27-0.9,0.5-1.86c0.26,4.81,0.54,9.89,0.84,15.25c0.64,11.51,1.51,21.88,2.61,31.37
		C1013.61,2317.85,999.29,2324.11,996,2315.66z M1015.19,2250.65c0.15,2.94,0.31,6.01,0.48,9.21c-0.23-0.19-0.48-0.35-0.8-0.43
		c0,0,0,0,0,0c-0.8,1.12-1.64,2.13-2.52,3.01c-2.13,2.14-4.3,3.13-6.5,2.12c-0.2-0.09-0.39-0.22-0.66-0.38
		c0.14-0.16,0.2-0.26,0.27-0.31C1009.46,2261.57,1012.62,2256.93,1015.19,2250.65z M1015.02,2160.19
		c-0.23-24.36,10.88-59.5,11.79-61.62c-0.8,1.26-9.16,13.19-9.16,13.19c5.52-30.73,12.32-53.71,12.32-53.71l-12.72,11.77
		c25.24-40.24,56.98-54.13,56.98-54.13c-25.63,18-37.19,50.84-37.19,50.84l10.39-10.58c-14.55,33.15-15.85,49.08-15.85,49.08
		l5.37-6.65L1015.02,2160.19z M1022.88,2250.35c0.98-21.76-0.48-50.87-0.48-50.87c3.19-15.16,7.86-39,9.55-56.02
		c2.66-26.82,21.49-68.36,21.49-68.36l-10.96,11.75c0,0,7.28-31.24,28.1-47.16c0,0-5.82,0.64-13.06,5.37
		c0,0,11.06-31.85,83.39-52.34l-10.11,8.83c0,0,52-15.06,87.52-16.85l-14.48,8.88c0,0,81.92-23.2,129.58-3.85
		c0,0-9.3,1.84-17.11,7.44c0,0,46-2.18,64.16,8.42c0,0,17.04,15.86,20.07,58.36l2.83-8.47c0,0,9.57,56.71,9.62,93.12
		c0.03,18.49-0.25,36.38-0.53,49.51c-12.35,155.06-9.32,141.08-22.26,189.55c-15.7,64.81-62.04,92.63-95.02,116.24
		c-32.98,23.61-80.75,24.06-131.01,6.48c-43.44-15.2-68.41-54.93-91.83-81.44c0,0,0,0,0-0.01
		C1019.06,2360.52,1022.88,2250.35,1022.88,2250.35z M1088.77,2793.64c-2.25-52.99-17.08-80.81-43.42-155.71
		c-17.14-55.02-4.29-88.14,9.91-106.45c2.19,9.01,6.3,23,3.98,34.67c-10.92,60.63,17.02,121.41,17.02,121.41l0,0
		c2.84,9.79,5.72,18.43,8.25,25.15C1098.26,2749.27,1088.77,2793.64,1088.77,2793.64z M1243.28,2725.18c0,0-57.81,6.37-56.1,64.03
		c0.85,28.74-4.76,46.97-12.25,59.56l-17.53-66.85c0,0-28.09-36.02-68.25-96.97c-16.53-30.12-16.59-75.24-15.13-99.72
		c2.5,18.85,4.86,34.21,6.77,42.46c7.3,31.44-4.42-131.88-7.88-178.72c65.68,88.16,144.96,101.99,214.24,70.16
		c31.68-19.34,55.13-38.15,72.55-56.73c1.17,34.71,4.74,131.27,8.7,147.42c2.46,10.02,3.51-31.9,3.94-75.66
		c14.43,6.45,49.4,28.62,14.38,82.45c-8.69,13.36-19.54,25.19-31.88,35.29C1298.2,2698.25,1243.28,2725.18,1243.28,2725.18z
		 M1441.32,2619.62c-2.53,58.55-97.53,159.38-162.27,213c-0.19-43.42-13.92-100.94-13.92-100.94
		c186.89-73.42,157.82-206.26,157.82-206.26S1443.71,2564.25,1441.32,2619.62z"/>
	<path d="M1176.77,2899.41c-9.76,0.09-17.59,8.08-17.5,17.84c0.09,9.76,8.08,17.59,17.84,17.5c9.76-0.09,17.59-8.08,17.5-17.84
		C1194.51,2907.16,1186.52,2899.32,1176.77,2899.41z"/>
	<path d="M3740.66,1488.7c-80.2-113.58-188.9-217.26-323.86-309.1c0,0-38.59,5.98-17.09,87.9
		c113.39,81.1,205.3,171.04,274.06,268.42c91.13,129.06,137.33,265.7,137.33,406.12s-46.21,277.05-137.33,406.12
		c-89.52,126.78-218.23,240.97-382.56,339.42c-165.84,99.34-359.24,177.41-574.83,232.03c-223.93,56.74-461.9,85.5-707.31,85.5
		c-9.81,0-19.61-0.06-29.39-0.15c12.08,38.11,20.09,64.89,21.03,68.04c1.39,4.66,1.74,9.4,1.22,13.97c2.38,0.01,4.76,0.03,7.14,0.03
		c252.19,0,496.93-29.61,727.42-88.01c223.33-56.59,424.12-137.72,596.8-241.16c174.18-104.34,311.24-226.28,407.37-362.43
		c101.07-143.15,152.32-295.68,152.32-453.34S3841.74,1631.85,3740.66,1488.7z"/>
	<path d="M344.37,2348.16c-91.13-129.06-137.33-265.7-137.33-406.12s46.21-277.05,137.33-406.12
		c89.51-126.78,218.23-240.97,382.56-339.42c165.83-99.34,359.23-177.41,574.83-232.03c223.93-56.74,461.9-85.51,707.31-85.51
		c245.41,0,483.39,28.77,707.31,85.51c47.16,11.95,93.25,25.02,138.23,39.19c7.22-23.49,19.42-47.16,38.13-73.77
		c-50.75-16.31-102.85-31.26-156.25-44.79c-230.5-58.4-475.24-88.01-727.42-88.01c-252.19,0-496.93,29.61-727.42,88.01
		c-223.33,56.59-424.12,137.72-596.79,241.16c-174.18,104.34-311.24,226.28-407.37,362.43
		c-101.08,143.15-152.33,295.68-152.33,453.34s51.25,310.19,152.33,453.34c80.5,114.02,189.73,218.06,325.4,310.15
		c17.16-26.19,34.31-47.11,51.5-64.01C524.33,2554.07,420.26,2455.64,344.37,2348.16z"/>
	<path d="M2034.83,2936.33l-0.06-21.22l-37.01-0.34c-5.6-0.05-7.73-3.35-7.69-7.8l0.29-31.57c0.04-4.45,2.23-7.32,7.83-7.26
		l37.01,0.34l0.46-21.74c0,0-24.02-1.79-45.13-1.99c-17.68-0.16-26.56,11.28-26.68,24.51l-0.4,43.36
		c-0.12,13.23,8.54,25.23,26.22,25.4C2010.14,2938.2,2034.83,2936.33,2034.83,2936.33z"/>
	<path d="M2080.82,2936.61l28.1-0.79c17.8-0.5,26.38-12.27,26.01-25.37l-1.89-67.19l-26.32,0.74l1.75,62.47
		c0.13,4.45-1.83,7.52-7.29,7.68l-13.73,0.39c-5.59,0.16-7.59-2.8-7.71-7.25l-1.75-62.47l-26.45,0.74l1.89,67.19
		C2053.79,2925.84,2063.01,2937.11,2080.82,2936.61z"/>
	<path d="M2193.02,2908.94l-41.9,2.47l1.12,21.19c0,0,29.97,0.59,45.59-0.33c23.36-1.38,30.26-9.79,29.29-26.14l-0.62-10.46
		c-0.79-13.34-3.98-19.85-20.67-22.01c-1.54-0.17-27.08-3.39-27.08-3.39c-2.7-0.37-4.12-0.68-4.23-2.64l-0.06-1.05
		c-0.16-2.75,0.34-2.91,3-3.06l41.14-2.43l-1.11-21.06c0,0-24.77-0.9-40.39,0.02c-23.36,1.38-30.77,9.69-29.81,25.91l0.51,8.63
		c1.03,17.53,9.61,18.2,27.83,20.41c1.02,0.07,20.53,2.46,22.08,2.77c2.18,0.26,2.4,1.83,2.47,3l0.15,2.62
		C2200.57,2907.32,2198.48,2908.62,2193.02,2908.94z"/>
	<polygon points="2311.45,2830.44 2230.35,2837.64 2232.32,2859.82 2259.69,2857.4 2265.82,2926.56 2292.18,2924.22 
		2286.05,2855.06 2313.42,2852.63 	"/>
	<path d="M2377.84,2822.48l-29.43,3.57c-17.55,2.13-25.02,14.51-23.43,27.65l5.14,42.39c1.58,13,11.81,23.38,29.36,21.25l29.43-3.57
		c17.55-2.13,25.13-14.66,23.55-27.66l-5.14-42.39C2405.74,2830.57,2395.4,2820.35,2377.84,2822.48z M2379.07,2892.79l-14.9,1.81
		c-5.56,0.67-7.81-2.09-8.35-6.51l-4.02-33.16c-0.54-4.42,1.03-7.38,6.58-8.06l14.9-1.81c5.43-0.66,7.78,1.83,8.32,6.25l4.02,33.16
		C2386.16,2888.89,2384.5,2892.13,2379.07,2892.79z"/>
	<path d="M2475.12,2899.54c0,0,0.54,1.77,2.3,1.48l19.59-3.17c1.76-0.28,1.84-2.16,1.84-2.16l5.76-44.06l1.38-0.22l7.09,43.84
		l26.12-4.22l-14.64-90.53l-32.15,5.2c-1.51,0.24-1.55,1.58-1.55,1.58l-9.92,50.97l-0.75,0.12l-25.49-45.24c0,0-0.46-1.25-1.84-1.03
		l-32.27,5.22l14.64,90.53l26.12-4.23l-7.09-43.84l1.38-0.22L2475.12,2899.54z"/>
	<path d="M2634.87,2869.57c0,0,0.65,1.74,2.39,1.35l19.37-4.33c1.74-0.39,1.71-2.26,1.71-2.26l3.13-44.33l1.36-0.3l9.68,43.34
		l25.82-5.77l-19.99-89.5l-31.78,7.1c-1.49,0.33-1.45,1.67-1.45,1.67l-6.88,51.48l-0.74,0.17l-28.13-43.65c0,0-0.53-1.22-1.9-0.92
		l-31.91,7.13l19.99,89.5l25.82-5.77l-9.68-43.34l1.37-0.31L2634.87,2869.57z"/>
	<polygon points="2786.06,2833.86 2780.1,2811.59 2738.32,2822.78 2735.24,2811.26 2770.25,2801.88 2764.42,2780.12 2729.4,2789.5 
		2726.22,2777.6 2768.24,2766.35 2762.57,2745.22 2695,2763.32 2718.74,2851.9 	"/>
	<polygon points="2853,2717.69 2775.22,2741.7 2781.78,2762.98 2808.03,2754.88 2828.5,2821.22 2853.79,2813.42 2833.31,2747.07 
		2859.57,2738.97 	"/>
	<path d="M2943.77,2783.13l26.77-9.39c0,0-50.11-68.35-54.2-73.86c-2.5-3.29-2.91-3.29-7.83-1.56l-27.97,9.81
		c-4.92,1.72-5.24,1.97-5.02,6.06c0.24,6.85,3.66,91.58,3.66,91.58l26.89-9.43l-1.53-19.73l28.09-9.85L2943.77,2783.13z
		 M2902.35,2753.79l-2.39-30.67l2.88-1.01l17.28,25.45L2902.35,2753.79z"/>
	<polygon points="3049.67,2742 3041.32,2721.21 3003.2,2736.52 2977.38,2672.21 2952.83,2682.07 2986.99,2767.17 	"/>
	<path d="M3158.1,2692.14l25.55-12.33c0,0-57.49-62.3-62.17-67.31c-2.86-2.99-3.26-2.94-7.95-0.67l-26.69,12.88
		c-4.69,2.27-4.98,2.55-4.3,6.59c1.02,6.78,13.94,90.59,13.94,90.59l25.66-12.39l-3.74-19.44l26.8-12.94L3158.1,2692.14z
		 M3113.64,2667.63l-5.83-30.21l2.75-1.33l20.03,23.35L3113.64,2667.63z"/>
	<path d="M3247.55,2644.5l23.98-13.4l-27.12-21.16c5.01-7.45,4.74-16.3,0.33-24.19l-7.09-12.69c-6.39-11.44-19.72-17.04-35.27-8.36
		l-46.75,26.12l44.73,80.06l23.1-12.9l-13.68-24.47l13.66-7.63L3247.55,2644.5z M3217.16,2605.5l-17.55,9.8l-10.29-18.41l17.55-9.8
		c4.77-2.67,8.02-1.03,10.19,2.86l2.94,5.26C3222.18,2599.1,3221.94,2602.83,3217.16,2605.5z"/>
	<polygon points="3310.87,2606.45 3333.1,2592.1 3295.45,2533.76 3318.53,2518.86 3306.46,2500.15 3238.06,2544.28 3250.14,2563 
		3273.22,2548.1 	"/>
	<path d="M3475.55,2485.68l-13.96-17.36l-13.68,11l-6.74-1.47l-2.47-10.79l8.82-7.1l-12.18-15.76l-20.12,16.19
		c0,0,2.28,7.91,3.16,11.24l-18.25-4.82c-2.16-0.45-3.72-1.38-4.95-2.91l-0.16-0.2c-1.79-2.43-1.11-3.82,2.16-6.45l12.89-10.37
		l-11.62-15.87c0,0-12.58,8.11-19.52,13.69c-12.69,10.21-17.03,22.27-6.83,35.76l0.74,0.92c3.04,3.78,7.66,6.28,13.51,8.47
		l-0.91,0.9c-8.14,8.56-9.69,17.38-1.89,27.08l8.62,10.72c9.2,11.43,21.2,8.5,34.83-2.97l2.18-1.75
		c14.87-11.96,15.24-13.94,15.13-20.57c2.96,0.64,7.36,1.64,7.36,1.64L3475.55,2485.68z M3421.21,2506.02l-1.88,1.52
		c-4.26,3.43-6.35,2.25-8.48-0.4l-6.39-7.13c-1.23-1.53-1.23-2.54,0.16-3.66l1.29-1.04l17.99,3.69
		C3423.88,2502.03,3423.69,2504.03,3421.21,2506.02z"/>
	<path d="M3502.22,2430.13l15.19,14.83c0,0,22.45-19.88,33.31-31.14c16.25-16.85,15.62-27.71,3.84-39.07l-7.54-7.28
		c-9.62-9.28-16.37-11.9-30.11-2.18c-1.25,0.92-22.22,15.86-22.22,15.86c-2.23,1.56-3.49,2.29-4.9,0.93l-0.75-0.73
		c-1.98-1.91-1.72-2.37,0.13-4.29l28.61-29.66l-15.09-14.73c0,0-18.83,16.12-29.69,27.39c-16.25,16.85-16.07,27.98-4.38,39.26
		l6.22,6c12.63,12.19,19.4,6.87,34.29-3.86c0.8-0.64,16.77-12.1,18.11-12.93c1.78-1.28,3-0.28,3.85,0.53l1.89,1.82
		c2.83,2.73,2.18,5.1-1.62,9.04L3502.22,2430.13z"/>
	<rect x="3545.68" y="2288.57" transform="matrix(0.6373 -0.7706 0.7706 0.6373 -508.2072 3589.002)" width="26.33" height="91.7"/>
	<path d="M3635.17,2311.6c11.62-17.01,25.71-41.12,25.71-41.12c0.07-0.11,2.01-3.4-1.49-5.95l-39.52-28.54l-23.6,34.55l16.11,11.01
		l10.91-13.65l9.34,6.53l-12.3,18.24c-3.09,4.52-6.83,4.42-10.4,1.98l-26.82-18.32c-3.68-2.51-5.02-5.89-1.93-10.41l23.17-33.92
		l-17.88-12.37c0,0-16.33,21.81-28.31,39.35c-9.97,14.6-5.26,28.6,5.55,35.99l35.91,24.53
		C3610.44,2326.9,3625.2,2326.19,3635.17,2311.6z"/>
	<path d="M3699.38,2191.06c4.35-0.58,5.5-1.44,7.44-5.44l9.2-19l-82.53-39.95l-11.47,23.7l41.38,20.03l-0.28,0.57
		c-9.3,0.87-49.74,7.15-51.6,7.38c-2.67,0.4-3.09,0.06-5.52,5.1l-9.26,19.12l82.53,39.95l11.53-23.81l-41.26-19.98l0.39-0.8
		L3699.38,2191.06z"/>
	<path d="M3739.55,2096.78c6.58-22.46,0.99-31.79-14.73-36.39l-10.06-2.95c-12.82-3.76-20.02-2.95-27.69,12.03
		c-0.68,1.39-12.32,24.36-12.32,24.36c-1.25,2.42-2.02,3.65-3.91,3.1l-1.01-0.29c-2.64-0.77-2.62-1.3-1.87-3.86l11.59-39.55
		l-20.2-6.05c0,0-9.2,23.02-13.6,38.04c-6.58,22.46-1.26,32.24,14.33,36.81l8.3,2.43c16.85,4.94,20.38-2.91,28.6-19.33
		c0.41-0.94,9.24-18.5,10.05-19.86c0.98-1.96,2.53-1.64,3.66-1.31l2.52,0.74c3.77,1.11,4.29,3.51,2.76,8.76l-11.8,40.28l20.33,6.09
		C3724.48,2139.82,3735.15,2111.79,3739.55,2096.78z"/>
	<path d="M2873.21,1139.68c0,0-61.37,1.11-37.04,96.2c10.5,22.11,22.49,48.1,23.96,69.66c1.44,21.15,4.67,58.78,45.49,41.95
		c1.12,7.89,2.36,15.7,3.72,23.29c0.93,5.21,2.03,11.72,3.25,19.18c-5.76,5.54-19.3,18.98-39.02,41.13
		c-160.78,27.55-261.25,87.5-261.25,87.5c35.14-7.42,73.74-13.55,114.54-16.83c10.91-0.12,22.03-0.86,32.89-1.98
		c25.13-2.59,48.86-7.2,65.28-10.87c-12.11,15.19-25.2,32.18-39.16,51.06c-56.39,78.51-117.21,165.86-117.21,165.86
		s89.57,37.6,150.38,16.59c48.65,23.22,90.67,55.29,147.06,110.57c47.63,46.7,78.53,134.4,86.98,160.54
		c-5.63,14.66-9.74,27.87-11.79,38.75h28.75c0,0,25.8-119.68,84.04-172.02c58.24-52.34,92.14-82.56,107.62-86.98
		s14.74,31.7,77.4,39.07c0,0-17.69-41.28-9.58-138.59c4.62-55.47,1.38-100.2-4.83-134.61c8.47,5.05,25.43,14.6,46.11,23.23
		c29.85,12.45,149.64,62.74,140.8,89.27c-8.85,26.54-64.5,140.43-58.97,142.09c5.53,1.66,74.08-144.67,108.36-130.29
		c34.28,14.37,85.14,91.04,76.3,130.35c-8.85,39.31-111.68,172.99-72.98,149.77c38.7-23.22,92.88-155.91,108.36-80.72
		c15.48,75.19,47.55,175.81,47.55,163.65c0-12.16-20.77-200.93-34.28-239.95c-23.22-67.08-59.89-117.51-191.29-195.71
		c-104.68-62.29-183.18-102.27-183.18-102.27c-1.27-3.54-2.55-6.82-3.8-9.85c5.46-10.04,11.04-20.94,16.7-32.74
		c18.8-50.86,15.48-69.11,22.67-123.29c0-0.01,0-0.02,0-0.03c22.69-32.54,19.12-80.29,14.55-91.19c-0.48-1.15-1.35-2.18-2.52-3.11
		c2.5-15.13,5.42-29.83,8.97-43.33c5.14-14.12,10.37-23.3,14.46-29.05c5.98,0.58,11.66-2.11,16.06-7.24
		c4.73-5.52,6.83-12.8,6.15-20.03c-1.98-20.99-12.3-56.31-45.44-93.68c-3.93-4.43-8.01-8.68-12.22-12.76
		c-10.76-49.57-8.29-67.12-30.96-87.69c-27.64-22.67-79.06-56.39-93.99-71.32c-52.52-35.94-77.95-33.73-155.91-22.67
		c-95.09,24.88-88.46,24.33-112.23,68c-46.99,55.29-65.24,91.22-70.77,127.16C2877.63,1071.68,2873.21,1139.68,2873.21,1139.68z
		 M2912.03,1186l-1.47-23.17l-6.75,38.16l-3.37-40.85l-6.84,8.66l0.44-20.89l25.64,11.1C2915.22,1172.38,2912.03,1186,2912.03,1186z
		 M2897.49,1243.94C2897.49,1243.94,2897.49,1243.94,2897.49,1243.94c-1.18,1.5-2.44,2.87-3.78,4.09c-3.25,2.94-6.7,4.41-10.46,3.34
		c-0.34-0.1-0.68-0.25-1.14-0.41c0.2-0.21,0.3-0.36,0.41-0.42c7.8-4.12,13.05-12.69,16.64-24.07c0.47-1.49,0.89-2.99,1.28-4.51
		c-0.27,6.73-0.58,14.4-0.94,22.87C2898.98,1244.36,2898.33,1244.05,2897.49,1243.94z M2899.13,1269.21
		c-0.33-2.44-0.33-4.8-0.05-7.09C2899.08,1264.45,2899.09,1266.81,2899.13,1269.21z M2916.21,1129l9.83-10.81
		c-2.97,6.58-5.39,14.86-7.03,21.23l-29.36-10.59c17.36-24.02,44.01-44.8,44.01-44.8C2915.72,1121.62,2916.21,1129,2916.21,1129z
		 M2851.09,1715.04c-6.63-7.37-6.63-100.25,10.32-168.07c0,0-19.9,34.65-44.23,122.37c-17.69,38.33-40.54,34.65-65.61,32.44
		c-25.06-2.21-40.54-11.06-40.54-11.06s51.6-78.88,84.04-127.53c27.76-41.64,100.87-125.93,121.37-149.37
		c0.45,2.78,0.9,5.62,1.37,8.51c0,0-64.5,88.52-35.02,255.11c15.48,47.92,18.43,68.56,18.43,68.56S2857.73,1722.41,2851.09,1715.04z
		 M2945.45,1492.42c-1.47-19.17,31.91,95.79,164.49,115.71c10.24,3.82,22.81,7.04,38.04,8.68c18.8,0-7.74,30.41-25.43,59.16
		c-17.69,28.75,41.47-33.73,49.21-43.12c7.74-9.4,41.46-32.07,54.18-44.23c5.01-4.79,14.31-13.28,26.51-27.57
		c0,0,2.11,29.62-10.65,88.56c-16.21,48.26-83.32,125.88-188.53,105.89C2948.04,1735.5,2891,1590.83,2891,1590.83
		c0.24-54.55,11.18-107.48,31.91-136.91c7.55,46.25,16.15,96.08,22.54,117.38C2956.51,1608.15,2946.92,1511.58,2945.45,1492.42z
		 M3069.98,1954.46c-8.38-16.76-24.15-47.29-43.74-80.37c17.11,14.73,31.5,16.63,31.5,16.63c-26.29-15.97-47.18-53.57-47.18-53.57
		l25.55,19.9c-23.1-33.42-70.03-84.04-70.03-84.04c44.72,34.4,75.19,30.65,75.19,30.65c-54.85-11.44-92.09-63.67-92.09-63.67v0
		c28.7,24.61,64.31,42.45,100.38,50.96c32.79,7.73,70.2-1.64,100.47-13.65l0,0c0,0-45.25,31.35-61.8,43.51
		c-16.55,12.16,42.05-14.37,56.43-18.24c14.37-3.87-40.73,40.91-59.35,69.11c-15.82,23.97,28.94-20.64,57.32-39.88
		c-13.2,18.22-25.45,35.8-35.02,52.05C3093.91,1907.13,3080.88,1931.48,3069.98,1954.46z M3224.83,1767.01
		c0,8.85-8.48,23.59-67.08,75.19l-16.96,14.01c0,0,49.02-60.45,60.45-81.82s23.59-43.12,23.59-43.12
		S3224.83,1758.16,3224.83,1767.01z M3313.29,1619.02c-4.98,63.58-6.08,140.43,4.98,167.52c0,0-27.09,2.21-24.88-90.12
		c-2.76-53.63-2.76-53.63-2.76-53.63s-11.61,50.86-14.37,70.77c-2.76,19.9-23.22,42.02-32.07,45.89c-8.85,3.87-9.4-32.99-1.11-65.42
		c8.59-31.51,27.33-92.93,21.19-147.6c3.55-4.63,7.27-9.68,11.13-15.2c0,0,0,0,0,0c0,0,11.36,22.55,17.99,76.18
		c0,0,5.23-43.58-9-89.52l0,0c4.63-7.12,9.42-14.88,14.34-23.33C3301.9,1505.18,3317.77,1561.72,3313.29,1619.02z M3335.96,1339.27
		c-2.76,56.39-6.08,51.42-18.8,59.16c-12.72,7.74,5.22,3.56,8.91,2.83c3.69-0.74-3.69,34.89-25.06,52.34
		c-12.04,11.3-17.45,23.59-19.66,27.52c-2.21,3.93,15.48-14.5,21.87-18.18c6.39-3.69,2.33,17.88-54.06,85.33
		c-13.27,16.59,2.21-27.64,0-30.41c-2.21-2.76-45.89,98.41-119.42,82.93c-6.14-1.38-11.63-2.67-16.54-3.88
		c-6.14-1.51-11.38-2.89-15.85-4.15c-30.88-10.14-99.68-43.09-140.84-142.35c-19.17-50.13-11.79-2.95-11.79,11.79
		s-11.79-50.11-21.38-87.71c-9.58-37.6-12.53-94.36-5.16-175.45c2.58-11.35,5.97-24.23,9.29-36.19l15.03,7.07
		c0,0,10.03,3.72,21.82,8.43l28.67,12.41c4,2,6.96,3.74,8.11,4.97c5.9,6.27,3.32,64.13,18.43,77.77
		c23.36,18.07,77.78,29.81,103.43,30.35c-7.43,2.99-17.29,8.42-24.67,17.81c-13.52,17.2-22.85,24.82-21.62,24.57
		c1.23-0.25,21.38-13.27,27.03-18.92c5.65-5.65,8.35-7.37,8.35-7.37s-11.3,32.44,18.18,38.82c29.49,6.39,25.06,5.41,43.98,19.66
		c18.92,14.25,33.42,12.04,49.88,2.95c16.46-9.09,35.38-1.47,40.79-22.61c0,0,11.57,19.66,12.42,40.3c0,0,8.96-27.03-12.17-51.36
		c-4.43-10.96-8.32-20.48-16.47-28.86c23.44,12.15,75.91,10.94,76.87,10.92c4.74-0.42,8.66-0.92,11.61-1.35
		C3336.75,1331.88,3336.36,1335.49,3335.96,1339.27z M3018.3,1213.4c0,0,8.23,0.86,13.64-2.09c5.41-2.95,4.67-3.19,7.37-2.21
		c2.7,0.98,7.25-1.6,10.32-1.6s10.69,0.98,11.55-0.98c0.86-1.97,2.09-3.32,4.3-1.72c0.98,1.6-1.23,4.05,2.83,4.91
		c4.05,0.86,21.13,2.83,24.82,3.19c3.69,0.37,4.67-1.57,5.53-4.1c0.86-2.53,1.84-6.22,7.13-2.41c4.42,3.32,2.7,7.25,2.58,8.11
		c-0.12,0.86,9.46,3.19,13.88,4.05c4.42,0.86,12.78,5.53,10.32,0.74c-5.41-5.16-13.76-10.07-19.66-14.5
		c-5.9-4.42-24.69-14.62-48.41-6.88c-8.48,2.21-18.31,5.41-20.39,5.04c-2.09-0.37,14.87-16.59,39.93-14.99
		c25.06,1.6,36.15,15.85,48.97,24.82c5.21,4.55,14.55,5.04,16.63,4.79s-11.43-3.51-20.89-12.94c-3.62-3.61-10.23-8.99-18.87-13.41
		c20.65,5.09,43.53,12.4,66.3,22.91c9.58,5.53,1.84,33.17-19.9,64.87c-13.27,12.9-9.95,15.85-33.91,16.59
		c-23.96,0.74-74.45-6.04-102.47-29.93c-6.63-7.22-9.58-39-7.74-65.17c1.11-12.9,11.21-21.27,19.04-20.89c0,0,16.93,0.31,42.51,4.34
		c-5.67,0.63-11.56,2.16-17.57,4.88c-17.94,8.23-18.14,12.78-31.33,19.66C3016.83,1212.54,3018.3,1213.4,3018.3,1213.4z
		 M3073.84,1201.04c0-1.47,2.12-2.66,4.73-2.66s4.73,1.19,4.73,2.66c0,1.47-2.12,2.66-4.73,2.66S3073.84,1202.51,3073.84,1201.04z
		 M3088.24,1206.91c0-1.37,1.11-2.48,2.48-2.48s2.48,1.11,2.48,2.48s-1.11,2.48-2.48,2.48S3088.24,1208.28,3088.24,1206.91z
		 M3230.68,1289.46L3230.68,1289.46c0,0,10.36,37.34,10.86,50.36c0.49,13.02,3.19-7.13,4.42-8.85c1.23-1.72,14.25,9.09,11.06,28.01
		c-3.44,13.51-18.18,1.47-33.42,12.04c-15.23,10.57-27.52,14.99-49.14-4.42c-21.62-19.41-34.44-17.69-40.81-16.22
		c-6.37,1.47-26.71-17.99-8.06-36.37c7.84-4.91,6.81,3.44,8.06,7.13c1.25,3.69,11.14-16.1,11.14-16.1v0
		c6.13-8.54,12.14-17.64,12.14-17.64c17.89-16.89,23.99-37.21,30.3-44.89c11.43-10.32,30.96-9.21,33.91-1.47
		c0.68,2.73,1.36,9.2,2.29,17.4v0C3225.48,1268.77,3227.72,1279.68,3230.68,1289.46z M3343.51,1267.03
		c-0.22,3.61-0.49,7.37-0.79,11.17c-12.85,3.82-28.51-9.46-28.51-9.46c15.42,19.58,28.5,9.47,28.51,9.46
		c-1.24,15.48-3.07,31.79-4.29,42.07c-0.45,0.34-0.88,0.6-1.3,0.75c-6.15,2.21-52.6,8.48-85.77-8.11
		c-10.69-8.48-19.9-32.44-21.75-63.03c0,0-0.5-4.61,1.87-9.83c3.9-4.67,13.61-4.36,9.92,0.24c-9.21,8.66-1.94,5.81,3.87,6.17
		c9.31,0.28,5.71-2.58,10.23-6.27c5.25-4.33,6.36-2.4,7.74-0.46c1.38,1.94,0.28,5.71,1.75,6.14c0,0,5.85,3.88,21.29,3.84
		c6,0.29,6.7-1.72,7.48-3.34c0.84-1.75,0.81-4.79,5.51-2.4c4.7,2.4-0.37,6.45,1.47,7c1.84,0.55,10.87,1.11,11.43,3.32
		c0.55,2.21-1.47,3.5,4.79,7.37c6.27,3.87,17.14,6.45,13.08,0s-4.24-10.5-6.27-15.85c-5.47-7.42-11.07-12.07-16.11-14.97
		c0,0,0,0,0,0s-8.1-5.67-22.76-7.01c11.23,0.15,24.81,1.24,39.8,4.29c11.08,2.26,18.66,4.51,23.75,7.29
		C3346.41,1243.44,3344.28,1254.31,3343.51,1267.03z M3285.52,1242.52c0-1.29,1.04-2.33,2.33-2.33c1.29,0,2.33,1.05,2.33,2.33
		c0,1.29-1.05,2.33-2.33,2.33c-0.89,0-1.65-0.5-2.04-1.23c-0.18-0.18-0.29-0.39-0.29-0.61c0-0.07,0.01-0.13,0.03-0.19
		C3285.54,1242.72,3285.52,1242.62,3285.52,1242.52z M3252.48,1235.52c3.67-2.91,7.29-4.89,10.57-6.26
		c0.16-0.05,21.49-9.96,42.7,5.34c8.55,6.62,8.46,12.72,8.46,12.72C3287.98,1217.95,3252.48,1235.52,3252.48,1235.52z
		 M3275.27,1237.39c0,1.85-1.5,3.35-3.35,3.35s-3.35-1.5-3.35-3.35c0-1.85,1.5-3.35,3.35-3.35S3275.27,1235.54,3275.27,1237.39z
		 M3356.41,1268.69c-1.48,11.51-4.25,22.72-7.41,31.81c0.85-9.76,1.76-20.64,2.25-27.94c0.59-8.69,2.79-20.77,4.7-30.1
		C3359.09,1248.37,3357.99,1256.45,3356.41,1268.69z M3353.14,1220.74c-0.01,0.02-0.61,1.45-1.5,4.05
		c-15.09-4.82-43.51-5.32-64.14-8.07c-37.6-3.69-46.07-0.74-59.71,2.58c-18.8,2.58-39.81-5.16-39.81-5.16s-30.22-19.53-86.99-30.59
		c-68.92-13.27-92.33-11.79-92.33-11.79l-75.93-27.38c3.89-13.32,6.82-22.74,6.82-22.74l-10.32,10.85l16.22-34.74l-13.27,14.31
		c0,0,6.14-17.48,12.14-32.44c13.29,12.2,41.13,27.23,84.23,0.39l0.01,0c0,0,53.07-17.15,86.24-35.95
		c33.17-18.8-2.44-6.63-5.09-6.63c-2.65,0,1.22-8.85,57.06-19.9c55.84-11.06,90.85-11.05,142.64,48.65
		c37.59,59.16,33.74,75.18,50.78,69.98C3360.2,1136.13,3362.25,1186.71,3353.14,1220.74z M2976.04,1043.12
		c140.06-95.46,226.68-77.03,226.68-77.03c-45.7,4.79-82.56,25.43-137.48,59.34C3005.89,1062.65,2976.04,1043.12,2976.04,1043.12z
		 M3391.25,1131.94c-18.8,2.21-17.14-1.11-30.96-37.04c-53.07-101.18-127.16-110.02-127.16-110.02
		C3344.8,979.35,3410.04,1129.73,3391.25,1131.94z M2896.43,1036.85c9.4-50.86,47.55-90.12,59.16-107.26
		c0,14.93-2.76,71.87,3.32,55.14c6.08-16.74,5.53-19.2,13.27-67.3c7.74-48.1,58.6-54.73,116.07-64.13
		c64.1-9.95,72.46,0.55,77.43,17.14c4.98,16.59,18.8,74.08,16.03,29.3c-2.78-56.15,5.53-41.47,28.75-25.98
		c90.12,72.98,103.39,70.21,107.81,82.11c3.09,8.32,8.62,35.68,11.66,51.39c-44.73-35.55-101.43-53.8-159.44-51.13
		c-47.04,2.16-100.21,15.64-159.19,53.09c-0.02,0.01-0.03,0.02-0.05,0.03c-39.71,22.17-120.35,86.76-121.45,88.42
		C2888.69,1099.33,2890.9,1068.92,2896.43,1036.85z M2888.22,1177.33c0.43,0.24,0.86,0.55,1.27,0.9c0.01,0.17,0.02,0.34,0.03,0.52
		l0.2-0.31c3.14,2.91,5.47,9.03,5.43,14.64c-0.03,4.68-1.4,8.36-3.69,11.03c-1.79,2.09-3.79,3.75-5.74,5.48
		c-1.64,1.45-3.35,2.72-5.02,4.07c-3.22,2.59-5.97,6.17-8.41,10.35c-0.15,0.26-0.3,0.53-0.46,0.8c-0.55,0.96-1.28,1.52-1.99,0.79
		c-0.73-0.75-0.69-2.11-0.26-3.18c1.18-2.94,2.39-5.86,3.67-8.69c0.6-1.32,1.4-2.42,2.1-3.64c0.23-0.4,0.41-0.86,0.61-1.3
		c-0.05-0.11-0.1-0.23-0.15-0.34c-0.27,0.17-0.54,0.31-0.8,0.52c-6.16,5.03-9.73,13.18-11.24,23.69
		c-1.31,9.13-0.73,18.07,1.45,26.75c0.2,0.81,0.39,1.63,0.56,2.46c1.67,8.03,5.22,13.12,10.04,16.34c2.11,1.42,4.19,3.04,6.18,4.83
		c2.32,2.08,3.97,5.19,5.05,9.1c1.62,5.87,6.28,8.99,10.26,7.01c1.15-0.58,2.15-1.66,2.94-3.08c0.81,12.28,2.01,25,3.55,37.68
		c-9.5,3.22-25.34,6.38-25.68-8.31c-0.49-21.01-17.08-66.64-25.93-83.35c-0.67-1.26-1.34-2.89-1.98-4.83
		c-0.51-2.6-0.96-5.24-1.32-7.93c-2.03-14.91-2.07-29.78,0.69-44.5c1.15-6.13,2.96-11.75,5.87-16.3c3.68-5.77,8.14-8.75,13.34-8.37
		c1.25,0.09,2.56,0.81,3.69,1.7c1.99,1.58,2.58,4.78,1.67,8.01c-0.8,2.82-2.25,4.54-3.94,5.92c-2.59,2.11-4.55,5.11-5.16,9.83
		c-0.84,6.57,2.36,11.09,6.35,8.94c2.51-1.34,4.39-4.09,6.14-7.11c1.44-2.5,2.76-5.22,4.36-7.43c1.03-1.42,2.42-2.33,3.75-3.01
		C2886.41,1176.63,2887.42,1176.9,2888.22,1177.33z"/>
</g>
</svg>
